<?xml version="1.0" encoding="UTF-8" standalone="no"?>
<svg xmlns="http://www.w3.org/2000/svg" width="89" height="20" viewBox="0 0 89 20" xmlns:xlink="http://www.w3.org/1999/xlink"> 
    <path fill="#FFF" fill-rule="evenodd" d="M17.475 15.36c0 1.242-.445 2.099-1.415 2.706C14.567 19.033 12.392 20 9.641 20 3.93 20 0 15.773 0 10 0 4.503 4.06 0 9.615 0c2.777 0 4.611.663 6.262 1.878.393.304.838.884.838 1.713 0 1.16-.89 2.1-1.99 2.1-.577 0-.944-.221-1.232-.442-1.1-.83-2.28-1.326-4.009-1.326-2.934 0-5.266 2.734-5.266 6.077 0 3.536 2.306 6.133 5.554 6.133 1.468 0 2.778-.387 3.8-1.16l.018-3.38h-2.724c-.97 0-1.756-.801-1.756-1.823 0-1.023.786-1.851 1.756-1.851h4.61c1.127 0 2.018.939 2.018 2.127l-.019 5.313zm3.89 2.495V2.44c0-1.402.666-2.439 2.08-2.439h7.801c1.28 0 1.894.953 1.894 1.934 0 .953-.64 1.934-1.894 1.934h-5.88v4.093l7.014.084c1.307 0 1.947.953 1.947 1.934 0 .953-.667 1.934-1.947 1.934l-7.015-.084v4.26h6.121c1.28 0 1.894.953 1.894 1.934 0 .954-.64 1.935-1.894 1.935h-8.068c-1.173 0-2.054-.841-2.054-2.103zm26.986 0c0 1.262-.88 2.103-2.053 2.103h-8.069c-1.253 0-1.893-.981-1.893-1.935 0-.98.613-1.934 1.893-1.934h6.122v-4.26h-6.749c-1.28 0-1.947-.981-1.947-1.934 0-.981.64-1.934 1.947-1.934h6.749V3.868h-5.882c-1.253 0-1.893-.98-1.893-1.934 0-.981.613-1.934 1.893-1.934h7.802c1.414 0 2.08 1.037 2.08 2.439v15.416zm3.873-.286V2.182c0-1.188.89-2.127 2.017-2.127h.42c.969 0 1.545.497 2.095 1.243l7.782 10.774V2.099c0-1.16.89-2.099 1.99-2.099 1.101 0 1.992.94 1.992 2.1v15.386c0 1.188-.89 2.127-2.017 2.127h-.131c-.97 0-1.546-.497-2.096-1.243l-8.07-11.16v10.359c0 1.16-.89 2.1-1.99 2.1-1.101 0-1.992-.94-1.992-2.1zm25.525 0l-.116-5.497-5.92-8.48c-.289-.415-.499-.912-.499-1.52 0-1.133.891-2.044 2.018-2.044.917 0 1.493.524 1.991 1.298l4.454 6.768 4.532-6.823C84.707.497 85.31 0 86.15 0c1.23 0 1.964.912 1.964 2.072 0 .58-.262 1.105-.524 1.492l-5.92 8.425v5.58c0 1.188-.892 2.127-2.018 2.127-1.127 0-1.902-.94-1.902-2.127z"/>
</svg>
